<svg xmlns="http://www.w3.org/2000/svg" width="1200" height="630" viewBox="0 0 1200 630"><rect width="1200" height="630" fill="#FBFAF7"/><g transform="translate(984 72)"><rect width="120" height="120" rx="26.4" fill="#0F766E"/><g fill="#FBFAF7" transform="translate(21.45 90.19) scale(0.04 -0.04)"><path transform="translate(0 0)" d="M360 654L360 0L97 0L97 1118L355 1118L355 927L368 927Q406 1021 487.5 1076.5Q569 1132 695 1132Q811 1132 897 1083Q983 1034 1030.5 939.5Q1078 845 1078 711L1078 0L815 0L815 670Q815 782 757 845.5Q699 909 597 909Q528 909 474.5 879Q421 849 390.5 792.5Q360 736 360 654Z"/><path transform="translate(1175.2 0)" d="M665 1118L665 914L6 914L6 1118ZM170 0L170 1223Q170 1336 217 1411Q264 1486 343.5 1523Q423 1560 519 1560Q588 1560 641.5 1549Q695 1538 720 1529L666 1325Q650 1331 625 1336.5Q600 1342 568 1342Q495 1342 463.5 1306Q432 1270 432 1204L432 0Z"/></g></g><g fill="#111111" transform="translate(96 300) scale(0.06 -0.06)"><path transform="translate(0 0)" d="M360 654L360 0L97 0L97 1118L355 1118L355 927L368 927Q406 1021 487.5 1076.5Q569 1132 695 1132Q811 1132 897 1083Q983 1034 1030.5 939.5Q1078 845 1078 711L1078 0L815 0L815 670Q815 782 757 845.5Q699 909 597 909Q528 909 474.5 879Q421 849 390.5 792.5Q360 736 360 654Z"/><path transform="translate(1175.2 0)" d="M809 469L809 1118L1072 1118L1072 0L817 0L817 199L805 199Q767 105 681 45Q595 -15 469 -14Q359 -14 275.5 34.5Q192 83 144.5 177.5Q97 272 97 406L97 1118L360 1118L360 446Q360 341 418.5 278Q477 215 572 216Q630 216 684.5 244Q739 272 774 328Q809 384 809 469Z"/><path transform="translate(2344.4 0)" d="M592 -22Q424 -22 302 48.5Q180 119 114.5 248Q49 377 49 552Q49 725 114 855.5Q179 986 297 1059Q415 1132 575 1132Q678 1132 770.5 1099Q863 1066 934.5 997Q1006 928 1047 821.5Q1088 715 1088 568L1088 486L172 486L172 663L957 663L834 611Q834 706 805 776.5Q776 847 719 887Q662 927 577 927Q492 927 432 887Q372 847 341 779.5Q310 712 310 629L310 506Q310 404 345.5 331.5Q381 259 445.5 221Q510 183 596 183Q652 183 698.5 199Q745 215 778.5 247.5Q812 280 830 328L1076 299Q1052 202 987.5 129.5Q923 57 822.5 17.5Q722 -22 592 -22Z"/><path transform="translate(3477.2 0)" d="M665 1118L665 914L6 914L6 1118ZM170 0L170 1223Q170 1336 217 1411Q264 1486 343.5 1523Q423 1560 519 1560Q588 1560 641.5 1549Q695 1538 720 1529L666 1325Q650 1331 625 1336.5Q600 1342 568 1342Q495 1342 463.5 1306Q432 1270 432 1204L432 0Z"/><path transform="translate(4176 0)" d="M809 469L809 1118L1072 1118L1072 0L817 0L817 199L805 199Q767 105 681 45Q595 -15 469 -14Q359 -14 275.5 34.5Q192 83 144.5 177.5Q97 272 97 406L97 1118L360 1118L360 446Q360 341 418.5 278Q477 215 572 216Q630 216 684.5 244Q739 272 774 328Q809 384 809 469Z"/><path transform="translate(5345.2 0)" d="M360 654L360 0L97 0L97 1118L355 1118L355 927L368 927Q406 1021 487.5 1076.5Q569 1132 695 1132Q811 1132 897 1083Q983 1034 1030.5 939.5Q1078 845 1078 711L1078 0L815 0L815 670Q815 782 757 845.5Q699 909 597 909Q528 909 474.5 879Q421 849 390.5 792.5Q360 736 360 654Z"/><path transform="translate(6520.4 0)" d="M360 654L360 0L97 0L97 1118L355 1118L355 927L368 927Q406 1021 487.5 1076.5Q569 1132 695 1132Q811 1132 897 1083Q983 1034 1030.5 939.5Q1078 845 1078 711L1078 0L815 0L815 670Q815 782 757 845.5Q699 909 597 909Q528 909 474.5 879Q421 849 390.5 792.5Q360 736 360 654Z"/><path transform="translate(7695.6 0)" d="M592 -22Q424 -22 302 48.5Q180 119 114.5 248Q49 377 49 552Q49 725 114 855.5Q179 986 297 1059Q415 1132 575 1132Q678 1132 770.5 1099Q863 1066 934.5 997Q1006 928 1047 821.5Q1088 715 1088 568L1088 486L172 486L172 663L957 663L834 611Q834 706 805 776.5Q776 847 719 887Q662 927 577 927Q492 927 432 887Q372 847 341 779.5Q310 712 310 629L310 506Q310 404 345.5 331.5Q381 259 445.5 221Q510 183 596 183Q652 183 698.5 199Q745 215 778.5 247.5Q812 280 830 328L1076 299Q1052 202 987.5 129.5Q923 57 822.5 17.5Q722 -22 592 -22Z"/><path transform="translate(8828.4 0)" d="M360 1490L360 0L97 0L97 1490Z"/></g><rect x="98" y="334" width="132" height="9" rx="4.5" fill="#0F766E"/><g fill="#44444C" transform="translate(96 426) scale(0.02 -0.02)"><path transform="translate(0 0)" d="M634 -23Q460 -23 332 31Q204 85 132 188.5Q60 292 54 440L320 440Q326 362 368 310.5Q410 259 478.5 233Q547 207 631 207Q719 207 786 234Q853 261 891 309Q929 357 929 421Q929 479 895 516.5Q861 554 801 580Q741 606 660 626L491 670Q307 717 201 813.5Q95 910 95 1071Q95 1203 166 1301.5Q237 1400 360.5 1455Q484 1510 640 1510Q799 1510 919 1455Q1039 1400 1107 1303Q1175 1206 1178 1080L917 1080Q907 1176 832.5 1228.5Q758 1281 637 1281Q553 1281 492.5 1256Q432 1231 400 1187Q368 1143 368 1087Q368 1025 405.5 985.5Q443 946 501.5 922Q560 898 621 882L760 847Q844 827 922 793.5Q1000 760 1062.5 709.5Q1125 659 1161.5 587Q1198 515 1198 418Q1198 288 1131 188.5Q1064 89 938 33Q812 -23 634 -23Z"/><path transform="translate(1252.4 0)" d="M360 654L360 0L97 0L97 1490L354 1490L354 927L368 927Q407 1022 489 1077Q571 1132 700 1132Q816 1132 902.5 1083Q989 1034 1037 940Q1085 846 1085 711L1085 0L821 0L821 670Q821 784 763 846.5Q705 909 601 909Q531 909 476.5 879Q422 849 391 792.5Q360 736 360 654Z"/><path transform="translate(2434.8 0)" d="M97 0L97 1118L360 1118L360 0ZM229 1275Q166 1275 121 1317Q76 1359 76 1418Q76 1478 121 1520Q166 1562 229 1562Q291 1562 336 1520Q381 1478 381 1419Q381 1359 336 1317Q291 1275 229 1275Z"/><path transform="translate(2892 0)" d="M97 -418L97 1118L355 1118L355 933L371 933Q391 973 428 1019.5Q465 1066 528.5 1099Q592 1132 691 1132Q820 1132 924 1066Q1028 1000 1089.5 872Q1151 744 1151 557Q1151 373 1091 244Q1031 115 926.5 47.5Q822 -20 690 -20Q595 -20 531.5 12.5Q468 45 429.5 90.5Q391 136 371 177L360 177L360 -418ZM618 196Q705 196 763.5 243Q822 290 852 372Q882 454 882 558Q882 662 852 743Q822 824 764 870Q706 916 618 916Q533 916 474.5 872Q416 828 385.5 747.5Q355 667 355 558Q355 450 385.5 368.5Q416 287 475 241.5Q534 196 618 196Z"/><path transform="translate(4091.6 0)" d="M97 -418L97 1118L355 1118L355 933L371 933Q391 973 428 1019.5Q465 1066 528.5 1099Q592 1132 691 1132Q820 1132 924 1066Q1028 1000 1089.5 872Q1151 744 1151 557Q1151 373 1091 244Q1031 115 926.5 47.5Q822 -20 690 -20Q595 -20 531.5 12.5Q468 45 429.5 90.5Q391 136 371 177L360 177L360 -418ZM618 196Q705 196 763.5 243Q822 290 852 372Q882 454 882 558Q882 662 852 743Q822 824 764 870Q706 916 618 916Q533 916 474.5 872Q416 828 385.5 747.5Q355 667 355 558Q355 450 385.5 368.5Q416 287 475 241.5Q534 196 618 196Z"/><path transform="translate(5291.2 0)" d="M97 0L97 1118L360 1118L360 0ZM229 1275Q166 1275 121 1317Q76 1359 76 1418Q76 1478 121 1520Q166 1562 229 1562Q291 1562 336 1520Q381 1478 381 1419Q381 1359 336 1317Q291 1275 229 1275Z"/><path transform="translate(5748.4 0)" d="M360 654L360 0L97 0L97 1118L355 1118L355 927L368 927Q406 1021 487.5 1076.5Q569 1132 695 1132Q811 1132 897 1083Q983 1034 1030.5 939.5Q1078 845 1078 711L1078 0L815 0L815 670Q815 782 757 845.5Q699 909 597 909Q528 909 474.5 879Q421 849 390.5 792.5Q360 736 360 654Z"/><path transform="translate(6923.6 0)" d="M581 -442Q368 -442 246 -359.5Q124 -277 89 -160L325 -102Q341 -135 372 -167.5Q403 -200 455 -221.5Q507 -243 586 -243Q698 -243 771.5 -188.5Q845 -134 845 -11L845 200L830 200Q811 160 772 117.5Q733 75 669.5 45.5Q606 16 509 16Q381 16 276.5 77Q172 138 110.5 259Q49 380 49 562Q49 746 110.5 873Q172 1000 277 1066Q382 1132 511 1132Q609 1132 673 1099Q737 1066 775 1019.5Q813 973 834 933L848 933L848 1118L1105 1118L1105 -18Q1105 -161 1037 -255Q969 -349 850.5 -395.5Q732 -442 581 -442ZM583 223Q709 223 777.5 313.5Q846 404 846 564Q846 670 816 749Q786 828 727 872Q668 916 583 916Q495 916 436 870Q377 824 347.5 744.5Q318 665 318 564Q318 462 348 385Q378 308 437.5 265.5Q497 223 583 223Z"/><path transform="translate(8558 0)" d="M300 0L11 0L537 1490L869 1490L1394 0L1106 0L708 1184L696 1184ZM310 584L1095 584L1095 368L310 368Z"/><path transform="translate(9962.8 0)" d="M378 1490L378 0L108 0L108 1490Z"/><path transform="translate(10880.4 0)" d="M97 -418L97 1118L355 1118L355 933L371 933Q391 973 428 1019.5Q465 1066 528.5 1099Q592 1132 691 1132Q820 1132 924 1066Q1028 1000 1089.5 872Q1151 744 1151 557Q1151 373 1091 244Q1031 115 926.5 47.5Q822 -20 690 -20Q595 -20 531.5 12.5Q468 45 429.5 90.5Q391 136 371 177L360 177L360 -418ZM618 196Q705 196 763.5 243Q822 290 852 372Q882 454 882 558Q882 662 852 743Q822 824 764 870Q706 916 618 916Q533 916 474.5 872Q416 828 385.5 747.5Q355 667 355 558Q355 450 385.5 368.5Q416 287 475 241.5Q534 196 618 196Z"/><path transform="translate(12080 0)" d="M97 0L97 1118L352 1118L352 930L364 930Q394 1028 469 1080.5Q544 1133 640 1133Q661 1133 688.5 1131Q716 1129 734 1126L734 884Q717 890 681 894Q645 898 612 898Q539 898 482 867Q425 836 392.5 782Q360 728 360 656L360 0Z"/><path transform="translate(12769.6 0)" d="M584 -22Q420 -22 300 50Q180 122 114.5 252Q49 382 49 554Q49 727 114.5 857.5Q180 988 300 1060Q420 1132 584 1132Q748 1132 868 1060Q988 988 1054 857.5Q1120 727 1120 554Q1120 382 1054 252Q988 122 868 50Q748 -22 584 -22ZM584 190Q675 190 734 238.5Q793 287 822.5 370Q852 453 852 554Q852 657 822.5 740Q793 823 734 871.5Q675 920 584 920Q495 920 435 871.5Q375 823 345.5 740Q316 657 316 554Q316 453 345.5 370Q375 287 435 238.5Q495 190 584 190Z"/><path transform="translate(13938 0)" d="M509 -20Q378 -20 273.5 47.5Q169 115 109 244Q49 373 49 557Q49 744 110.5 872Q172 1000 276 1066Q380 1132 509 1132Q608 1132 671 1099Q734 1066 771.5 1019.5Q809 973 829 933L840 933L840 1490L1102 1490L1102 0L845 0L845 177L829 177Q808 136 770 90.5Q732 45 669 12.5Q606 -20 509 -20ZM582 196Q666 196 724.5 241.5Q783 287 814 368.5Q845 450 845 558Q845 667 814.5 747.5Q784 828 725.5 872Q667 916 582 916Q495 916 436 870Q377 824 347.5 743Q318 662 318 558Q318 454 348 372Q378 290 436.5 243Q495 196 582 196Z"/><path transform="translate(15137.6 0)" d="M809 469L809 1118L1072 1118L1072 0L817 0L817 199L805 199Q767 105 681 45Q595 -15 469 -14Q359 -14 275.5 34.5Q192 83 144.5 177.5Q97 272 97 406L97 1118L360 1118L360 446Q360 341 418.5 278Q477 215 572 216Q630 216 684.5 244Q739 272 774 328Q809 384 809 469Z"/><path transform="translate(16306.8 0)" d="M584 -22Q417 -22 297 51.5Q177 125 113 255Q49 385 49 554Q49 725 114 855Q179 985 299 1058.5Q419 1132 582 1132Q719 1132 824 1082Q929 1032 991.5 941.5Q1054 851 1063 730L811 730Q801 784 772 827Q743 870 696.5 895Q650 920 586 920Q505 920 444.5 876.5Q384 833 350 752Q316 671 316 558Q316 444 349 361.5Q382 279 443 234.5Q504 190 586 190Q673 190 733.5 241Q794 292 811 382L1063 382Q1054 263 993 172Q932 81 828 29.5Q724 -22 584 -22Z"/><path transform="translate(17415.2 0)" d="M654 1118L654 914L13 914L13 1118ZM170 1384L433 1384L433 336Q433 270 462 238.5Q491 207 554 207Q571 207 592 210Q613 213 630 217L675 11Q633 -2 590 -8.5Q547 -15 504 -15Q348 -15 259 67.5Q170 150 170 293Z"/><path transform="translate(18100.4 0)" d="M979 821L740 796Q725 851 675 893.5Q625 936 534 936Q452 936 396.5 900Q341 864 341 808Q341 759 377.5 727.5Q414 696 499 677L690 637Q847 604 925 529Q1003 454 1003 335Q1003 230 942 149Q881 68 773.5 23Q666 -22 526 -22Q321 -22 196.5 64.5Q72 151 47 305L304 329Q321 254 378.5 215.5Q436 177 526 177Q620 177 677 215.5Q734 254 734 310Q734 404 584 438L393 478Q232 513 155 591.5Q78 670 78 792Q78 896 135 972Q192 1048 294 1090Q396 1132 530 1132Q727 1132 839.5 1047.5Q952 963 979 821Z"/><path transform="translate(19579.2 0)" d="M328 0L12 1118L280 1118L477 332L487 332L688 1118L953 1118L1154 335L1164 335L1358 1118L1627 1118L1311 0L1036 0L826 755L812 755L602 0Z"/><path transform="translate(21217.6 0)" d="M97 0L97 1118L360 1118L360 0ZM229 1275Q166 1275 121 1317Q76 1359 76 1418Q76 1478 121 1520Q166 1562 229 1562Q291 1562 336 1520Q381 1478 381 1419Q381 1359 336 1317Q291 1275 229 1275Z"/><path transform="translate(21674.8 0)" d="M654 1118L654 914L13 914L13 1118ZM170 1384L433 1384L433 336Q433 270 462 238.5Q491 207 554 207Q571 207 592 210Q613 213 630 217L675 11Q633 -2 590 -8.5Q547 -15 504 -15Q348 -15 259 67.5Q170 150 170 293Z"/><path transform="translate(22399.4 0)" d="M360 654L360 0L97 0L97 1490L354 1490L354 927L368 927Q407 1022 489 1077Q571 1132 700 1132Q816 1132 902.5 1083Q989 1034 1037 940Q1085 846 1085 711L1085 0L821 0L821 670Q821 784 763 846.5Q705 909 601 909Q531 909 476.5 879Q422 849 391 792.5Q360 736 360 654Z"/><path transform="translate(24013.8 0)" d="M979 821L740 796Q725 851 675 893.5Q625 936 534 936Q452 936 396.5 900Q341 864 341 808Q341 759 377.5 727.5Q414 696 499 677L690 637Q847 604 925 529Q1003 454 1003 335Q1003 230 942 149Q881 68 773.5 23Q666 -22 526 -22Q321 -22 196.5 64.5Q72 151 47 305L304 329Q321 254 378.5 215.5Q436 177 526 177Q620 177 677 215.5Q734 254 734 310Q734 404 584 438L393 478Q232 513 155 591.5Q78 670 78 792Q78 896 135 972Q192 1048 294 1090Q396 1132 530 1132Q727 1132 839.5 1047.5Q952 963 979 821Z"/><path transform="translate(25060.6 0)" d="M97 0L97 1118L348 1118L348 927L362 927Q397 1023 478 1077.5Q559 1132 670 1132Q784 1132 862 1077Q940 1022 971 927L983 927Q1021 1020 1109 1076Q1197 1132 1319 1132Q1473 1132 1570.5 1034.5Q1668 937 1668 750L1668 0L1404 0L1404 710Q1404 813 1348.5 861.5Q1293 910 1213 910Q1118 910 1065 850.5Q1012 791 1012 698L1012 0L752 0L752 720Q752 807 701 858.5Q650 910 566 910Q509 910 462 881Q415 852 387.5 800Q360 748 360 680L360 0Z"/><path transform="translate(26825.8 0)" d="M419 -23Q312 -23 227 15.5Q142 54 93 129Q44 204 44 314Q44 408 79 470Q114 532 174.5 569Q235 606 311 625.5Q387 645 468 653Q567 664 628 672Q689 680 716.5 698Q744 716 744 754L744 759Q744 840 696 885Q648 930 556 930Q459 930 402.5 888Q346 846 326 789L81 824Q110 926 177 994.5Q244 1063 340.5 1097.5Q437 1132 554 1132Q634 1132 714 1113.5Q794 1095 861 1051Q928 1007 968 933Q1008 859 1008 748L1008 0L755 0L755 154L747 154Q723 108 679.5 67.5Q636 27 571.5 2Q507 -23 419 -23ZM486 171Q566 171 624 202.5Q682 234 714 286.5Q746 339 746 401L746 532Q733 522 704 513.5Q675 505 638 498Q601 491 565.5 486Q530 481 504 478Q445 470 398.5 451.5Q352 433 325 401Q298 369 298 318Q298 245 351 208Q404 171 486 171Z"/><path transform="translate(27931.4 0)" d="M360 1490L360 0L97 0L97 1490Z"/><path transform="translate(28388.6 0)" d="M360 1490L360 0L97 0L97 1490Z"/><path transform="translate(29277.8 0)" d="M654 1118L654 914L13 914L13 1118ZM170 1384L433 1384L433 336Q433 270 462 238.5Q491 207 554 207Q571 207 592 210Q613 213 630 217L675 11Q633 -2 590 -8.5Q547 -15 504 -15Q348 -15 259 67.5Q170 150 170 293Z"/><path transform="translate(29968.4 0)" d="M592 -22Q424 -22 302 48.5Q180 119 114.5 248Q49 377 49 552Q49 725 114 855.5Q179 986 297 1059Q415 1132 575 1132Q678 1132 770.5 1099Q863 1066 934.5 997Q1006 928 1047 821.5Q1088 715 1088 568L1088 486L172 486L172 663L957 663L834 611Q834 706 805 776.5Q776 847 719 887Q662 927 577 927Q492 927 432 887Q372 847 341 779.5Q310 712 310 629L310 506Q310 404 345.5 331.5Q381 259 445.5 221Q510 183 596 183Q652 183 698.5 199Q745 215 778.5 247.5Q812 280 830 328L1076 299Q1052 202 987.5 129.5Q923 57 822.5 17.5Q722 -22 592 -22Z"/><path transform="translate(31101.2 0)" d="M419 -23Q312 -23 227 15.5Q142 54 93 129Q44 204 44 314Q44 408 79 470Q114 532 174.5 569Q235 606 311 625.5Q387 645 468 653Q567 664 628 672Q689 680 716.5 698Q744 716 744 754L744 759Q744 840 696 885Q648 930 556 930Q459 930 402.5 888Q346 846 326 789L81 824Q110 926 177 994.5Q244 1063 340.5 1097.5Q437 1132 554 1132Q634 1132 714 1113.5Q794 1095 861 1051Q928 1007 968 933Q1008 859 1008 748L1008 0L755 0L755 154L747 154Q723 108 679.5 67.5Q636 27 571.5 2Q507 -23 419 -23ZM486 171Q566 171 624 202.5Q682 234 714 286.5Q746 339 746 401L746 532Q733 522 704 513.5Q675 505 638 498Q601 491 565.5 486Q530 481 504 478Q445 470 398.5 451.5Q352 433 325 401Q298 369 298 318Q298 245 351 208Q404 171 486 171Z"/><path transform="translate(32206.8 0)" d="M97 0L97 1118L348 1118L348 927L362 927Q397 1023 478 1077.5Q559 1132 670 1132Q784 1132 862 1077Q940 1022 971 927L983 927Q1021 1020 1109 1076Q1197 1132 1319 1132Q1473 1132 1570.5 1034.5Q1668 937 1668 750L1668 0L1404 0L1404 710Q1404 813 1348.5 861.5Q1293 910 1213 910Q1118 910 1065 850.5Q1012 791 1012 698L1012 0L752 0L752 720Q752 807 701 858.5Q650 910 566 910Q509 910 462 881Q415 852 387.5 800Q360 748 360 680L360 0Z"/><path transform="translate(33972 0)" d="M979 821L740 796Q725 851 675 893.5Q625 936 534 936Q452 936 396.5 900Q341 864 341 808Q341 759 377.5 727.5Q414 696 499 677L690 637Q847 604 925 529Q1003 454 1003 335Q1003 230 942 149Q881 68 773.5 23Q666 -22 526 -22Q321 -22 196.5 64.5Q72 151 47 305L304 329Q321 254 378.5 215.5Q436 177 526 177Q620 177 677 215.5Q734 254 734 310Q734 404 584 438L393 478Q232 513 155 591.5Q78 670 78 792Q78 896 135 972Q192 1048 294 1090Q396 1132 530 1132Q727 1132 839.5 1047.5Q952 963 979 821Z"/><path transform="translate(35018.8 0)" d="M289 -17Q221 -17 174.5 29.5Q128 76 128 143Q128 210 174.5 256.5Q221 303 289 303Q357 303 403.5 256.5Q450 210 450 143Q450 76 403.5 29.5Q357 -17 289 -17Z"/></g><g fill="#76767E" transform="translate(96 566) scale(0.01 -0.01)"><path transform="translate(0 0)" d="M360 654L360 0L97 0L97 1118L355 1118L355 927L368 927Q406 1021 487.5 1076.5Q569 1132 695 1132Q811 1132 897 1083Q983 1034 1030.5 939.5Q1078 845 1078 711L1078 0L815 0L815 670Q815 782 757 845.5Q699 909 597 909Q528 909 474.5 879Q421 849 390.5 792.5Q360 736 360 654Z"/><path transform="translate(1175.2 0)" d="M809 469L809 1118L1072 1118L1072 0L817 0L817 199L805 199Q767 105 681 45Q595 -15 469 -14Q359 -14 275.5 34.5Q192 83 144.5 177.5Q97 272 97 406L97 1118L360 1118L360 446Q360 341 418.5 278Q477 215 572 216Q630 216 684.5 244Q739 272 774 328Q809 384 809 469Z"/><path transform="translate(2344.4 0)" d="M592 -22Q424 -22 302 48.5Q180 119 114.5 248Q49 377 49 552Q49 725 114 855.5Q179 986 297 1059Q415 1132 575 1132Q678 1132 770.5 1099Q863 1066 934.5 997Q1006 928 1047 821.5Q1088 715 1088 568L1088 486L172 486L172 663L957 663L834 611Q834 706 805 776.5Q776 847 719 887Q662 927 577 927Q492 927 432 887Q372 847 341 779.5Q310 712 310 629L310 506Q310 404 345.5 331.5Q381 259 445.5 221Q510 183 596 183Q652 183 698.5 199Q745 215 778.5 247.5Q812 280 830 328L1076 299Q1052 202 987.5 129.5Q923 57 822.5 17.5Q722 -22 592 -22Z"/><path transform="translate(3477.2 0)" d="M665 1118L665 914L6 914L6 1118ZM170 0L170 1223Q170 1336 217 1411Q264 1486 343.5 1523Q423 1560 519 1560Q588 1560 641.5 1549Q695 1538 720 1529L666 1325Q650 1331 625 1336.5Q600 1342 568 1342Q495 1342 463.5 1306Q432 1270 432 1204L432 0Z"/><path transform="translate(4176 0)" d="M809 469L809 1118L1072 1118L1072 0L817 0L817 199L805 199Q767 105 681 45Q595 -15 469 -14Q359 -14 275.5 34.5Q192 83 144.5 177.5Q97 272 97 406L97 1118L360 1118L360 446Q360 341 418.5 278Q477 215 572 216Q630 216 684.5 244Q739 272 774 328Q809 384 809 469Z"/><path transform="translate(5345.2 0)" d="M360 654L360 0L97 0L97 1118L355 1118L355 927L368 927Q406 1021 487.5 1076.5Q569 1132 695 1132Q811 1132 897 1083Q983 1034 1030.5 939.5Q1078 845 1078 711L1078 0L815 0L815 670Q815 782 757 845.5Q699 909 597 909Q528 909 474.5 879Q421 849 390.5 792.5Q360 736 360 654Z"/><path transform="translate(6520.4 0)" d="M360 654L360 0L97 0L97 1118L355 1118L355 927L368 927Q406 1021 487.5 1076.5Q569 1132 695 1132Q811 1132 897 1083Q983 1034 1030.5 939.5Q1078 845 1078 711L1078 0L815 0L815 670Q815 782 757 845.5Q699 909 597 909Q528 909 474.5 879Q421 849 390.5 792.5Q360 736 360 654Z"/><path transform="translate(7695.6 0)" d="M592 -22Q424 -22 302 48.5Q180 119 114.5 248Q49 377 49 552Q49 725 114 855.5Q179 986 297 1059Q415 1132 575 1132Q678 1132 770.5 1099Q863 1066 934.5 997Q1006 928 1047 821.5Q1088 715 1088 568L1088 486L172 486L172 663L957 663L834 611Q834 706 805 776.5Q776 847 719 887Q662 927 577 927Q492 927 432 887Q372 847 341 779.5Q310 712 310 629L310 506Q310 404 345.5 331.5Q381 259 445.5 221Q510 183 596 183Q652 183 698.5 199Q745 215 778.5 247.5Q812 280 830 328L1076 299Q1052 202 987.5 129.5Q923 57 822.5 17.5Q722 -22 592 -22Z"/><path transform="translate(8828.4 0)" d="M360 1490L360 0L97 0L97 1490Z"/><path transform="translate(9285.6 0)" d="M289 -17Q221 -17 174.5 29.5Q128 76 128 143Q128 210 174.5 256.5Q221 303 289 303Q357 303 403.5 256.5Q450 210 450 143Q450 76 403.5 29.5Q357 -17 289 -17Z"/><path transform="translate(9863.6 0)" d="M584 -22Q417 -22 297 51.5Q177 125 113 255Q49 385 49 554Q49 725 114 855Q179 985 299 1058.5Q419 1132 582 1132Q719 1132 824 1082Q929 1032 991.5 941.5Q1054 851 1063 730L811 730Q801 784 772 827Q743 870 696.5 895Q650 920 586 920Q505 920 444.5 876.5Q384 833 350 752Q316 671 316 558Q316 444 349 361.5Q382 279 443 234.5Q504 190 586 190Q673 190 733.5 241Q794 292 811 382L1063 382Q1054 263 993 172Q932 81 828 29.5Q724 -22 584 -22Z"/><path transform="translate(10972 0)" d="M584 -22Q420 -22 300 50Q180 122 114.5 252Q49 382 49 554Q49 727 114.5 857.5Q180 988 300 1060Q420 1132 584 1132Q748 1132 868 1060Q988 988 1054 857.5Q1120 727 1120 554Q1120 382 1054 252Q988 122 868 50Q748 -22 584 -22ZM584 190Q675 190 734 238.5Q793 287 822.5 370Q852 453 852 554Q852 657 822.5 740Q793 823 734 871.5Q675 920 584 920Q495 920 435 871.5Q375 823 345.5 740Q316 657 316 554Q316 453 345.5 370Q375 287 435 238.5Q495 190 584 190Z"/><path transform="translate(12140.4 0)" d="M97 0L97 1118L348 1118L348 927L362 927Q397 1023 478 1077.5Q559 1132 670 1132Q784 1132 862 1077Q940 1022 971 927L983 927Q1021 1020 1109 1076Q1197 1132 1319 1132Q1473 1132 1570.5 1034.5Q1668 937 1668 750L1668 0L1404 0L1404 710Q1404 813 1348.5 861.5Q1293 910 1213 910Q1118 910 1065 850.5Q1012 791 1012 698L1012 0L752 0L752 720Q752 807 701 858.5Q650 910 566 910Q509 910 462 881Q415 852 387.5 800Q360 748 360 680L360 0Z"/></g></svg>