<?xml version="1.0" encoding="UTF-8"?>
<svg xmlns="http://www.w3.org/2000/svg" viewBox="0 0 461 370" width="461" height="370">
<rect width="461" height="370" fill="#769F00"/>
<g transform="translate(0.000000,370.000000) scale(0.100000,-0.100000)"
fill="#ffffff" stroke="none">
<path d="M2093 3443 c9 -2 23 -2 30 0 6 3 -1 5 -18 5 -16 0 -22 -2 -12 -5z"/>
<path d="M2150 3439 c0 -5 -9 -9 -20 -9 -40 0 -176 -32 -261 -61 -491 -167
-874 -551 -1027 -1029 -85 -268 -100 -573 -42 -845 30 -134 93 -316 106 -303
2 2 -12 47 -30 99 -64 179 -81 287 -81 524 1 195 3 219 29 329 70 297 198 540
397 750 148 156 298 265 490 355 209 97 349 131 585 138 202 6 330 -6 494 -48
295 -76 619 -326 814 -626 105 -163 197 -386 230 -558 23 -122 24 -123 25 -90
0 17 -10 75 -23 130 -99 406 -333 748 -671 977 -100 68 -94 72 12 8 233 -142
418 -323 561 -551 56 -89 108 -203 148 -324 18 -55 33 -93 34 -85 0 37 -66
215 -124 335 -82 165 -173 292 -306 425 -264 265 -588 417 -975 460 -114 12
-365 12 -365 -1z"/>
<path d="M2018 3433 c6 -2 18 -2 25 0 6 3 1 5 -13 5 -14 0 -19 -2 -12 -5z"/>
<path d="M1968 3423 c6 -2 18 -2 25 0 6 3 1 5 -13 5 -14 0 -19 -2 -12 -5z"/>
<path d="M1304 3078 l-19 -23 23 19 c21 18 27 26 19 26 -2 0 -12 -10 -23 -22z"/>
<path d="M1205 2988 l-60 -63 63 60 c34 33 62 61 62 62 0 8 -10 -1 -65 -59z"/>
<path d="M1109 2883 l-24 -28 28 24 c25 23 32 31 24 31 -2 0 -14 -12 -28 -27z"/>
<path d="M1069 2833 c-13 -16 -12 -17 4 -4 9 7 17 15 17 17 0 8 -8 3 -21 -13z"/>
<path d="M1039 2793 c-13 -16 -12 -17 4 -4 9 7 17 15 17 17 0 8 -8 3 -21 -13z"/>
<path d="M2244 2546 c-109 -51 -200 -190 -211 -324 -4 -51 -3 -72 6 -72 6 0
11 11 11 24 0 13 9 35 20 49 11 14 20 33 20 44 1 28 35 96 61 120 32 29 67 41
142 49 136 14 243 -38 268 -130 6 -22 18 -54 27 -70 8 -16 21 -48 29 -70 13
-40 13 -39 10 46 -3 74 -8 96 -37 155 -59 120 -167 203 -264 203 -17 0 -54
-11 -82 -24z"/>
<path d="M852 2465 c-17 -37 -14 -45 4 -12 9 16 14 31 11 33 -2 2 -9 -7 -15
-21z"/>
<path d="M2189 2376 c-29 -20 -69 -77 -69 -99 0 -2 20 -2 44 0 63 8 109 -3
141 -32 l27 -25 30 25 c37 31 66 39 129 33 55 -6 59 0 29 50 -36 58 -71 72
-190 72 -95 0 -109 -2 -141 -24z"/>
<path d="M816 2375 c-9 -26 -7 -32 5 -12 6 10 9 21 6 23 -2 3 -7 -2 -11 -11z"/>
<path d="M791 2294 c0 -11 3 -14 6 -6 3 7 2 16 -1 19 -3 4 -6 -2 -5 -13z"/>
<path d="M661 2194 c0 -11 3 -14 6 -6 3 7 2 16 -1 19 -3 4 -6 -2 -5 -13z"/>
<path d="M3922 2185 c0 -11 4 -31 8 -45 6 -20 8 -21 8 -5 0 11 -4 31 -8 45 -6
20 -8 21 -8 5z"/>
<path d="M2157 2172 c-22 -25 -21 -75 1 -95 43 -39 112 -8 112 50 0 53 -78 84
-113 45z"/>
<path d="M2411 2164 c-24 -31 -25 -35 -9 -69 22 -49 97 -46 118 6 11 27 11 33
-7 57 -29 39 -74 41 -102 6z"/>
<path d="M652 2150 c0 -14 2 -19 5 -12 2 6 2 18 0 25 -3 6 -5 1 -5 -13z"/>
<path d="M751 2134 c0 -11 3 -14 6 -6 3 7 2 16 -1 19 -3 4 -6 -2 -5 -13z"/>
<path d="M637 2085 c-4 -22 -6 -53 -6 -70 1 -16 5 -3 10 30 10 67 6 102 -4 40z"/>
<path d="M3942 2085 c0 -16 2 -22 5 -12 2 9 2 23 0 30 -3 6 -5 -1 -5 -18z"/>
<path d="M741 2074 c0 -11 3 -14 6 -6 3 7 2 16 -1 19 -3 4 -6 -2 -5 -13z"/>
<path d="M2307 2004 c-42 -36 -97 -47 -146 -30 l-41 14 0 -64 0 -64 48 0 c44
0 49 2 59 30 l11 30 96 0 97 0 6 -30 c5 -28 8 -30 54 -30 l49 0 0 61 c0 56 -2
60 -20 55 -11 -3 -29 -8 -40 -12 -29 -8 -94 13 -121 40 l-24 24 -28 -24z"/>
<path d="M3952 2005 c0 -16 2 -22 5 -12 2 9 2 23 0 30 -3 6 -5 -1 -5 -18z"/>
<path d="M732 2000 c0 -14 2 -19 5 -12 2 6 2 18 0 25 -3 6 -5 1 -5 -13z"/>
<path d="M3863 1980 c0 -25 2 -35 4 -22 2 12 2 32 0 45 -2 12 -4 2 -4 -23z"/>
<path d="M624 1830 c0 -85 2 -120 3 -77 2 42 2 112 0 155 -1 42 -3 7 -3 -78z"/>
<path d="M3961 1924 c0 -11 3 -14 6 -6 3 7 2 16 -1 19 -3 4 -6 -2 -5 -13z"/>
<path d="M3870 1835 c0 -173 -37 -381 -99 -555 -33 -93 -34 -121 -1 -45 29 68
67 206 85 310 17 95 33 365 22 365 -4 0 -7 -34 -7 -75z"/>
<path d="M3963 1825 c0 -44 2 -61 4 -37 2 23 2 59 0 80 -2 20 -4 1 -4 -43z"/>
<path d="M722 1865 c0 -16 2 -22 5 -12 2 9 2 23 0 30 -3 6 -5 -1 -5 -18z"/>
<path d="M2260 1875 c0 -12 15 -15 75 -15 60 0 75 3 75 15 0 12 -15 15 -75 15
-60 0 -75 -3 -75 -15z"/>
<path d="M4013 1780 c0 -47 2 -66 4 -42 2 23 2 61 0 85 -2 23 -4 4 -4 -43z"/>
<path d="M2150 1823 c0 -14 41 -78 58 -90 10 -9 53 -13 124 -13 120 0 135 7
172 79 l17 31 -39 0 c-36 0 -40 -3 -45 -30 l-6 -30 -97 0 -96 0 -11 30 c-9 25
-17 30 -44 30 -18 0 -33 -3 -33 -7z"/>
<path d="M2260 1815 c0 -12 15 -15 75 -15 60 0 75 3 75 15 0 12 -15 15 -75 15
-60 0 -75 -3 -75 -15z"/>
<path d="M722 1780 c0 -19 2 -27 5 -17 2 9 2 25 0 35 -3 9 -5 1 -5 -18z"/>
<path d="M4003 1635 c0 -22 2 -30 4 -17 2 12 2 30 0 40 -3 9 -5 -1 -4 -23z"/>
<path d="M3952 1640 c0 -14 2 -19 5 -12 2 6 2 18 0 25 -3 6 -5 1 -5 -13z"/>
<path d="M632 1620 c0 -19 2 -27 5 -17 2 9 2 25 0 35 -3 9 -5 1 -5 -18z"/>
<path d="M741 1574 c0 -11 3 -14 6 -6 3 7 2 16 -1 19 -3 4 -6 -2 -5 -13z"/>
<path d="M641 1554 c1 -16 5 -40 9 -54 6 -17 7 -9 3 25 -6 56 -14 74 -12 29z"/>
<path d="M3942 1560 c0 -14 2 -19 5 -12 2 6 2 18 0 25 -3 6 -5 1 -5 -13z"/>
<path d="M3992 1550 c0 -14 2 -19 5 -12 2 6 2 18 0 25 -3 6 -5 1 -5 -13z"/>
<path d="M1502 1547 c-8 -9 2 -53 32 -157 24 -80 46 -158 50 -173 6 -24 11
-28 34 -25 22 2 27 9 30 33 1 17 7 47 13 68 12 44 38 48 54 8 34 -82 51 -106
77 -109 24 -3 28 1 36 35 5 21 25 98 43 170 31 123 32 134 17 149 -29 29 -64
11 -84 -43 -9 -27 -20 -51 -24 -56 -3 -4 -20 13 -38 38 -17 25 -39 45 -47 45
-9 0 -25 -16 -37 -37 l-22 -36 -17 41 c-10 22 -27 45 -38 51 -27 15 -66 14
-79 -2z"/>
<path d="M2047 1548 c-18 -14 -117 -297 -117 -335 0 -21 4 -23 53 -23 l54 0 9
47 c6 32 15 49 26 51 14 3 17 -6 20 -45 l3 -48 63 -3 c41 -2 62 1 62 8 0 7 -9
46 -19 88 -10 43 -24 109 -31 147 -19 112 -26 125 -69 125 -21 0 -45 -6 -54
-12z m53 -144 c0 -14 -6 -24 -14 -24 -22 0 -28 17 -16 40 14 26 30 17 30 -16z"/>
<path d="M2350 1541 c-51 -26 -91 -96 -97 -169 -7 -73 9 -123 48 -157 27 -22
39 -25 115 -25 81 0 84 1 90 25 7 29 -11 81 -31 89 -7 2 -29 0 -48 -6 -44 -14
-64 -6 -78 29 -15 40 -3 90 27 109 21 14 30 15 70 4 39 -11 47 -11 55 1 12 18
5 85 -11 104 -18 21 -98 19 -140 -4z"/>
<path d="M2657 1548 c-18 -14 -117 -297 -117 -335 0 -21 4 -23 54 -23 l54 0 9
48 c6 37 12 47 28 47 15 0 19 -6 17 -25 -1 -14 0 -35 3 -47 5 -21 11 -23 66
-23 58 0 61 1 56 23 -2 12 -19 91 -36 176 -17 84 -34 157 -37 162 -8 13 -78
11 -97 -3z m53 -143 c0 -30 -14 -39 -30 -21 -8 11 -9 20 0 36 14 25 30 17 30
-15z"/>
<path d="M2969 1537 c-65 -43 -124 -195 -105 -270 3 -13 18 -36 32 -50 25 -25
33 -27 109 -27 82 0 83 0 113 34 16 19 35 51 42 72 25 76 -9 211 -62 248 -32
23 -89 20 -129 -7z m102 -118 c14 -27 4 -80 -22 -113 -38 -48 -79 -28 -79 40
0 75 72 127 101 73z"/>
<path d="M751 1514 c0 -11 3 -14 6 -6 3 7 2 16 -1 19 -3 4 -6 -2 -5 -13z"/>
<path d="M3931 1504 c0 -11 3 -14 6 -6 3 7 2 16 -1 19 -3 4 -6 -2 -5 -13z"/>
<path d="M3921 1464 c0 -11 3 -14 6 -6 3 7 2 16 -1 19 -3 4 -6 -2 -5 -13z"/>
<path d="M661 1459 c-2 -31 67 -244 76 -236 2 2 -2 17 -8 33 -7 16 -24 72 -40
124 -15 52 -28 88 -28 79z"/>
<path d="M3971 1454 c0 -11 3 -14 6 -6 3 7 2 16 -1 19 -3 4 -6 -2 -5 -13z"/>
<path d="M3912 1420 c0 -14 2 -19 5 -12 2 6 2 18 0 25 -3 6 -5 1 -5 -13z"/>
<path d="M3864 1274 c-17 -46 -28 -84 -25 -84 8 0 65 159 60 164 -2 2 -18 -34
-35 -80z"/>
<path d="M1021 966 c-2 -23 125 -182 224 -281 166 -166 344 -283 552 -365 104
-41 257 -82 360 -97 l58 -8 -70 -7 c-38 -3 20 -4 130 -2 456 9 722 86 1020
296 146 102 323 289 417 437 40 63 0 27 -69 -64 -92 -119 -239 -257 -366 -343
-122 -83 -164 -105 -179 -96 -7 5 -8 3 -3 -6 6 -10 4 -12 -9 -7 -10 4 -15 3
-11 -3 6 -9 -7 -14 -20 -7 -3 1 -9 -2 -13 -8 -9 -13 -98 -51 -202 -85 -383
-127 -828 -96 -1184 82 -197 98 -413 275 -534 438 -31 42 -67 90 -79 106 -12
16 -22 25 -22 20z"/>
<path d="M3590 918 c-58 -90 -148 -194 -248 -290 -53 -50 -74 -73 -47 -51 79
64 215 211 279 301 32 46 56 85 54 87 -3 3 -20 -18 -38 -47z"/>
<path d="M1010 765 c13 -14 26 -25 28 -25 3 0 -5 11 -18 25 -13 14 -26 25 -28
25 -3 0 5 -11 18 -25z"/>
<path d="M3579 713 l-34 -38 38 34 c20 19 37 36 37 38 0 8 -8 0 -41 -34z"/>
<path d="M1105 660 c10 -11 20 -20 23 -20 3 0 -3 9 -13 20 -10 11 -20 20 -23
20 -3 0 3 -9 13 -20z"/>
<path d="M1235 630 c10 -11 20 -20 23 -20 3 0 -3 9 -13 20 -10 11 -20 20 -23
20 -3 0 3 -9 13 -20z"/>
<path d="M3464 598 l-29 -33 33 29 c30 28 37 36 29 36 -2 0 -16 -15 -33 -32z"/>
<path d="M1185 590 c10 -11 20 -20 23 -20 3 0 -3 9 -13 20 -10 11 -20 20 -23
20 -3 0 3 -9 13 -20z"/>
<path d="M3219 523 c-13 -16 -12 -17 4 -4 16 13 21 21 13 21 -2 0 -10 -8 -17
-17z"/>
</g>
<g transform="translate(90.500,253.927) scale(0.07254)">
<g transform="translate(0.000000,195.000000) scale(0.100000,-0.100000)"
fill="#ffffff" stroke="none">
<path d="M35530 1028 l0 -888 124 0 123 0 1 558 c0 306 1 568 1 582 1 24 3 23
41 -19 38 -42 276 -290 506 -531 56 -58 116 -121 134 -140 18 -19 112 -118
210 -220 97 -102 208 -218 247 -259 l70 -74 0 884 0 884 -123 0 -124 0 0 -580
0 -580 -41 44 c-22 25 -116 124 -208 220 -93 97 -183 192 -201 211 -18 19
-110 116 -204 214 -94 99 -214 225 -267 280 -52 56 -139 146 -192 201 l-96
100 -1 -887z"/>
<path d="M5102 1028 c-222 -480 -402 -877 -400 -883 2 -6 54 -10 127 -10 113
0 125 1 136 20 7 11 50 102 96 203 l82 182 356 0 356 0 85 -200 c46 -110 89
-201 95 -203 26 -8 255 -1 256 8 1 13 -774 1754 -781 1755 -3 0 -187 -393
-408 -872z m527 31 l120 -274 -246 -3 c-135 -1 -248 -1 -249 1 -2 2 49 120
114 263 65 142 121 268 125 278 4 10 10 17 12 14 3 -3 59 -128 124 -279z"/>
<path d="M10122 1028 c-222 -480 -402 -877 -400 -883 2 -6 54 -10 127 -10 113
0 125 1 136 20 7 11 50 102 96 203 l82 182 356 0 356 0 85 -200 c46 -110 89
-201 95 -203 26 -8 255 -1 256 8 1 13 -774 1754 -781 1755 -3 0 -187 -393
-408 -872z m527 31 l120 -274 -246 -3 c-135 -1 -248 -1 -249 1 -2 2 49 120
114 263 65 142 121 268 125 278 4 10 10 17 12 14 3 -3 59 -128 124 -279z"/>
<path d="M20062 1028 c-222 -480 -402 -877 -400 -883 2 -6 54 -10 127 -10 113
0 125 1 136 20 7 11 50 102 96 203 l82 182 356 0 356 0 85 -200 c46 -110 89
-201 95 -203 26 -8 255 -1 256 8 1 13 -774 1754 -781 1755 -3 0 -187 -393
-408 -872z m527 31 l120 -274 -246 -3 c-135 -1 -248 -1 -249 1 -2 2 49 120
114 263 65 142 121 268 125 278 4 10 10 17 12 14 3 -3 59 -128 124 -279z"/>
<path d="M24482 1028 c-222 -480 -402 -877 -400 -883 2 -6 54 -10 127 -10 113
0 125 1 136 20 7 11 50 102 96 203 l82 182 356 0 356 0 85 -200 c46 -110 89
-201 95 -203 26 -8 255 -1 256 8 1 13 -774 1754 -781 1755 -3 0 -187 -393
-408 -872z m527 31 l120 -274 -246 -3 c-135 -1 -248 -1 -249 1 -2 2 49 120
114 263 65 142 121 268 125 278 4 10 10 17 12 14 3 -3 59 -128 124 -279z"/>
<path d="M33772 1028 c-222 -480 -402 -877 -400 -883 2 -6 54 -10 127 -10 113
0 125 1 136 20 7 11 50 102 96 203 l82 182 356 0 356 0 85 -200 c46 -110 89
-201 95 -203 26 -8 255 -1 256 8 1 13 -774 1754 -781 1755 -3 0 -187 -393
-408 -872z m527 31 l120 -274 -246 -3 c-135 -1 -248 -1 -249 1 -2 2 49 120
114 263 65 142 121 268 125 278 4 10 10 17 12 14 3 -3 59 -128 124 -279z"/>
<path d="M1183 1864 c-4 -10 -105 -277 -224 -593 l-217 -573 -65 168 c-37 93
-133 342 -215 554 l-149 385 -138 3 c-108 2 -136 0 -132 -10 24 -60 553 -1390
617 -1552 l83 -208 86 228 c48 126 147 390 221 587 73 196 137 354 141 350 3
-5 100 -268 215 -585 114 -318 209 -576 210 -575 5 6 734 1755 734 1760 0 4
-60 7 -133 7 l-133 0 -229 -556 c-190 -459 -231 -551 -238 -532 -5 13 -101
277 -213 587 -112 310 -206 567 -209 569 -2 3 -8 -4 -12 -14z"/>
<path d="M8623 1825 c-138 -32 -267 -133 -325 -254 -57 -119 -44 -290 29 -391
67 -92 155 -151 344 -231 206 -87 264 -128 304 -212 29 -62 31 -157 3 -218
-31 -70 -64 -105 -129 -138 -54 -27 -69 -30 -137 -27 -152 6 -234 80 -264 238
-13 72 -9 69 -83 51 -16 -4 -32 -7 -35 -8 -15 -3 -86 -19 -92 -20 -5 -2 -17
-3 -29 -4 -19 -1 -21 -6 -16 -43 7 -56 46 -163 82 -224 61 -104 179 -189 306
-218 60 -14 214 -16 264 -3 146 38 284 145 348 272 44 87 64 242 45 346 -22
122 -111 242 -234 315 -38 22 -136 69 -219 103 -156 66 -195 88 -233 131 -75
85 -41 221 70 278 131 67 301 20 364 -100 8 -16 17 -28 20 -28 8 0 194 112
199 119 2 4 -19 37 -47 75 -49 65 -121 127 -183 159 -85 43 -244 57 -352 32z"/>
<path d="M16640 1829 c-81 -15 -100 -19 -148 -35 -156 -53 -313 -173 -418
-319 -71 -99 -134 -245 -151 -351 -14 -87 -8 -293 12 -369 75 -298 321 -544
620 -621 47 -12 109 -18 190 -18 177 -1 253 14 398 81 l77 36 0 153 0 153 -66
-50 c-138 -104 -247 -141 -404 -135 -107 4 -128 8 -203 36 -177 66 -324 234
-374 425 -12 48 -14 231 -3 288 45 233 231 428 461 483 64 16 216 12 288 -7
79 -20 199 -80 263 -130 l38 -31 0 151 0 150 -72 35 c-119 57 -207 77 -343 81
-66 1 -140 -1 -165 -6z"/>
<path d="M26593 1825 c-138 -32 -267 -133 -325 -254 -57 -119 -44 -290 29
-391 67 -92 155 -151 344 -231 206 -87 264 -128 304 -212 29 -62 31 -157 3
-218 -31 -70 -64 -105 -129 -138 -54 -27 -69 -30 -137 -27 -152 6 -234 80
-264 238 -13 72 -9 69 -83 51 -16 -4 -32 -7 -35 -8 -15 -3 -86 -19 -92 -20 -5
-2 -17 -3 -29 -4 -19 -1 -21 -6 -16 -43 7 -56 46 -163 82 -224 61 -104 179
-189 306 -218 60 -14 214 -16 264 -3 146 38 284 145 348 272 44 87 64 242 45
346 -22 122 -111 242 -234 315 -38 22 -136 69 -219 103 -156 66 -195 88 -233
131 -75 85 -41 221 70 278 131 67 301 20 364 -100 8 -16 17 -28 20 -28 8 0
194 112 199 119 2 4 -19 37 -47 75 -49 65 -121 127 -183 159 -85 43 -244 57
-352 32z"/>
<path d="M28223 1825 c-138 -32 -267 -133 -325 -254 -57 -119 -44 -290 29
-391 67 -92 155 -151 344 -231 206 -87 264 -128 304 -212 29 -62 31 -157 3
-218 -31 -70 -64 -105 -129 -138 -54 -27 -69 -30 -137 -27 -152 6 -234 80
-264 238 -13 72 -9 69 -83 51 -16 -4 -32 -7 -35 -8 -15 -3 -86 -19 -92 -20 -5
-2 -17 -3 -29 -4 -19 -1 -21 -6 -16 -43 7 -56 46 -163 82 -224 61 -104 179
-189 306 -218 60 -14 214 -16 264 -3 146 38 284 145 348 272 44 87 64 242 45
346 -22 122 -111 242 -234 315 -38 22 -136 69 -219 103 -156 66 -195 88 -233
131 -75 85 -41 221 70 278 131 67 301 20 364 -100 8 -16 17 -28 20 -28 8 0
194 112 199 119 2 4 -19 37 -47 75 -49 65 -121 127 -183 159 -85 43 -244 57
-352 32z"/>
<path d="M30853 1825 c-138 -32 -267 -133 -325 -254 -57 -119 -44 -290 29
-391 67 -92 155 -151 344 -231 206 -87 264 -128 304 -212 29 -62 31 -157 3
-218 -31 -70 -64 -105 -129 -138 -54 -27 -69 -30 -137 -27 -152 6 -234 80
-264 238 -13 72 -9 69 -83 51 -16 -4 -32 -7 -35 -8 -15 -3 -86 -19 -92 -20 -5
-2 -17 -3 -29 -4 -19 -1 -21 -6 -16 -43 7 -56 46 -163 82 -224 61 -104 179
-189 306 -218 60 -14 214 -16 264 -3 146 38 284 145 348 272 44 87 64 242 45
346 -22 122 -111 242 -234 315 -38 22 -136 69 -219 103 -156 66 -195 88 -233
131 -75 85 -41 221 70 278 131 67 301 20 364 -100 8 -16 17 -28 20 -28 8 0
194 112 199 119 2 4 -19 37 -47 75 -49 65 -121 127 -183 159 -85 43 -244 57
-352 32z"/>
<path d="M2910 975 l0 -835 124 0 123 0 1 368 c0 202 1 377 1 390 l1 22 360 0
360 0 0 -390 0 -390 124 0 123 0 0 835 0 835 -123 0 -124 0 0 -325 0 -325
-362 0 -363 0 1 325 2 325 -124 0 -124 0 0 -835z"/>
<path d="M6680 1690 l0 -120 190 0 190 0 1 -22 c0 -13 1 -335 1 -715 l1 -693
123 0 124 0 0 715 0 715 190 0 190 0 0 120 0 120 -505 0 -505 0 0 -120z"/>
<path d="M11880 978 l0 -833 118 1 c64 1 120 2 123 3 3 0 6 150 6 331 0 182 2
332 4 335 3 2 49 5 104 6 303 6 498 132 558 362 17 64 20 186 6 249 -34 153
-157 293 -299 341 -77 26 -107 29 -367 34 l-253 5 0 -834z m480 588 c49 -11
129 -57 152 -89 38 -50 51 -101 46 -182 -11 -164 -116 -240 -340 -244 -73 -2
-88 1 -89 13 0 9 0 120 0 246 0 127 0 240 0 251 1 21 4 22 104 16 56 -3 113
-8 127 -11z"/>
<path d="M13420 978 l0 -833 118 1 c64 1 120 2 123 3 3 0 6 150 6 331 0 182 2
332 4 335 3 2 49 5 104 6 303 6 498 132 558 362 17 64 20 186 6 249 -34 153
-157 293 -299 341 -77 26 -107 29 -367 34 l-253 5 0 -834z m480 588 c49 -11
129 -57 152 -89 38 -50 51 -101 46 -182 -11 -164 -116 -240 -340 -244 -73 -2
-88 1 -89 13 0 9 0 120 0 246 0 127 0 240 0 251 1 21 4 22 104 16 56 -3 113
-8 127 -11z"/>
<path d="M17880 975 l0 -835 124 0 123 0 1 368 c0 202 1 377 1 390 l1 22 360
0 360 0 0 -390 0 -390 124 0 123 0 0 835 0 835 -123 0 -124 0 0 -325 0 -325
-362 0 -363 0 1 325 2 325 -124 0 -124 0 0 -835z"/>
<path d="M21640 1690 l0 -120 190 0 190 0 1 -22 c0 -13 1 -335 1 -715 l1 -693
123 0 124 0 0 715 0 715 190 0 190 0 0 120 0 120 -505 0 -505 0 0 -120z"/>
<path d="M29500 975 l0 -835 124 0 123 0 0 835 0 835 -123 0 -124 0 0 -835z"/>
<path d="M31960 1690 l0 -120 190 0 190 0 1 -22 c0 -13 1 -335 1 -715 l1 -693
123 0 124 0 0 715 0 715 190 0 190 0 0 120 0 120 -505 0 -505 0 0 -120z"/>
<path d="M37550 1690 l0 -120 190 0 190 0 1 -22 c0 -13 1 -335 1 -715 l1 -693
123 0 124 0 0 715 0 715 190 0 190 0 0 120 0 120 -505 0 -505 0 0 -120z"/>
</g>
</g>
</svg>
